<?xml version="1.0" encoding="UTF-8" standalone="no"?>
<!-- Created with Inkscape (http://www.inkscape.org/) -->

<svg
   width="512"
   height="512"
   viewBox="0 0 512 512"
   version="1.1"
   id="svg1"
   xml:space="preserve"
   xmlns="http://www.w3.org/2000/svg"
   xmlns:svg="http://www.w3.org/2000/svg"><defs
     id="defs1" /><g
     id="layer1"
     style="display:inline;opacity:1"><path
       d="m 0.15401481,192.18039 c 0,-11.74771 9.53437129,-21.28208 21.28207919,-21.28208 h 44.862622 c 3.128465,-18.60054 10.045141,-36.62646 21.409771,-52.58802 L 56.253575,86.855381 c -8.321293,-8.321292 -8.321293,-21.771566 0,-30.092859 8.321292,-8.321293 21.771566,-8.321293 30.092859,0 l 31.454916,31.454912 c 15.98284,-11.36463 34.00876,-18.281305 52.58801,-21.409771 V 21.923759 c 0,-11.747707 9.53437,-21.28207879 21.28208,-21.28207879 11.74771,0 21.28207,9.53437179 21.28207,21.28207879 v 44.862622 c 18.60054,3.128466 36.71159,9.917449 52.71571,21.303361 l 31.3485,-31.348502 c 8.3213,-8.321293 21.77157,-8.321293 30.09286,0 8.3213,8.321293 8.3213,21.771567 0,30.092859 L 84.494893,329.4498 c -4.150005,4.15001 -9.598217,6.23565 -15.04643,6.23565 -5.448212,0 -10.896424,-2.08564 -15.046429,-6.23565 -8.321293,-8.32129 -8.321293,-21.77156 0,-30.09286 L 87.602077,266.1569 C 76.216164,250.17406 69.427181,232.06301 66.298716,213.44119 H 21.436094 c -11.7477079,0 -21.28207919,-9.53437 -21.28207919,-21.28208 z M 504.68825,6.8773293 c -8.32129,-8.3212928 -21.77157,-8.3212928 -30.09286,0 L 6.3896639,475.08307 c -8.3212928,8.32129 -8.3212928,21.77156 0,30.09286 4.1500051,4.15 9.5982171,6.23565 15.0464301,6.23565 5.448212,0 10.896424,-2.08565 15.046429,-6.23565 L 504.68825,36.970189 c 8.32129,-8.321293 8.32129,-21.771567 0,-30.0928597 z M 498.66542,240.00123 c 6.81027,-3.19232 11.44976,-9.7472 12.17335,-17.23849 0.72359,-7.51257 -2.57513,-14.81232 -8.66181,-19.239 -18.26002,-13.3013 -39.01005,-22.6867 -61.65418,-27.98594 -7.12949,-1.66 -14.68463,0.46821 -19.87746,5.68232 l -178.5992,178.57793 c -5.19283,5.19282 -7.34232,12.7054 -5.68232,19.85618 17.94079,77.59446 86.12857,131.75735 165.82996,131.75735 36.07312,0 70.6565,-11.27951 99.96192,-32.62543 6.08668,-4.42667 9.3854,-11.76899 8.66181,-19.239 -0.72359,-7.51257 -5.3418,-14.04617 -12.17335,-17.25977 -39.20159,-18.32387 -64.54855,-58.03622 -64.54855,-101.13243 0,-43.09621 25.32568,-82.80857 64.54855,-101.15372 z"
       id="path1"
       style="fill:#f2f2f2;stroke-width:21.2821" /></g></svg>
