<?xml version="1.0" encoding="UTF-8" standalone="no"?>
<!-- Created with Inkscape (http://www.inkscape.org/) -->

<svg
   width="512"
   height="512"
   viewBox="0 0 512 512"
   version="1.1"
   id="svg1"
   xml:space="preserve"
   xmlns="http://www.w3.org/2000/svg"
   xmlns:svg="http://www.w3.org/2000/svg"><defs
     id="defs1" /><g
     id="layer1"
     style="display:inline;opacity:1"><path
       d="M 407.27874,22.857964 H 108.61208 A 106.79467,106.79467 0 0 0 1.9454058,129.52463 v 256 A 106.79467,106.79467 0 0 0 108.61208,492.1913 H 407.27874 A 106.79467,106.79467 0 0 0 513.94541,385.52463 v -256 A 106.79467,106.79467 0 0 0 407.27874,22.857964 Z m -298.66666,42.66667 h 298.66666 a 64,64 0 0 1 59.30667,40.255996 l -163.37067,163.392 a 64.149333,64.149333 0 0 1 -90.53866,0 L 49.305406,105.78063 A 64,64 0 0 1 108.61208,65.524634 Z M 407.27874,449.52463 H 108.61208 a 64,64 0 0 1 -64.000004,-64 v -224 L 182.51074,299.33796 a 106.816,106.816 0 0 0 150.86934,0 L 471.27874,161.52463 v 224 a 64,64 0 0 1 -64,64 z"
       id="path1"
       style="fill:#f2f2f2;stroke-width:21.3333" /></g></svg>
