<?xml version="1.0" encoding="UTF-8" standalone="no"?>
<!-- Created with Inkscape (http://www.inkscape.org/) -->

<svg
   width="512"
   height="512"
   viewBox="0 0 512 512"
   version="1.1"
   id="svg1"
   xml:space="preserve"
   xmlns="http://www.w3.org/2000/svg"
   xmlns:svg="http://www.w3.org/2000/svg"><defs
     id="defs1" /><g
     id="layer1"
     style="display:inline;opacity:1"><g
       id="g1"
       transform="matrix(21.333333,0,0,21.333333,-0.27710271,-0.43403506)"
       style="fill:#ececec;fill-opacity:1">
	<path
   d="m 24,12.073 c 0,5.989 -4.394,10.954 -10.13,11.855 v -8.363 h 2.789 l 0.531,-3.46 H 13.87 V 9.86 c 0,-0.947 0.464,-1.869 1.95,-1.869 h 1.509 V 5.045 c 0,0 -1.37,-0.234 -2.679,-0.234 -2.734,0 -4.52,1.657 -4.52,4.656 v 2.637 H 7.091 v 3.46 h 3.039 v 8.363 C 4.395,23.025 0,18.061 0,12.073 c 0,-6.627 5.373,-12 12,-12 6.627,0 12,5.372 12,12 z"
   id="path1"
   style="fill:#ececec;fill-opacity:1" />
</g></g></svg>
