<?xml version="1.0" encoding="UTF-8" standalone="no"?>
<!-- Created with Inkscape (http://www.inkscape.org/) -->

<svg
   width="512"
   height="512"
   viewBox="0 0 512 512"
   version="1.1"
   id="svg1"
   xml:space="preserve"
   xmlns="http://www.w3.org/2000/svg"
   xmlns:svg="http://www.w3.org/2000/svg"><defs
     id="defs1" /><g
     id="layer1"
     style="display:inline;opacity:1"><path
       d="M 279.04434,23.494967 A 21.333333,21.333333 0 0 1 300.37768,2.1616371 213.568,213.568 0 0 1 513.71101,215.49496 a 21.333336,21.333336 0 0 1 -42.66667,0 A 170.85867,170.85867 0 0 0 300.37768,44.828297 21.333333,21.333333 0 0 1 279.04434,23.494967 Z m 21.33334,106.666663 a 85.333333,85.333333 0 0 1 85.33333,85.33333 21.333335,21.333335 0 0 0 42.66667,0 128.128,128.128 0 0 0 -128,-127.999993 21.333334,21.333334 0 0 0 0,42.666663 z m 193.984,229.09868 a 66.133333,66.133333 0 0 1 0,93.39733 l -19.41334,22.37867 C 300.22834,642.31097 -124.94499,217.2443 39.748339,41.969637 l 24.53334,-21.33334 a 65.728,65.728 0 0 1 92.309331,0.85334 c 0.66133,0.66133 40.192,52.01066 40.192,52.01066 a 66.133333,66.133333 0 0 1 -0.14933,91.349333 l -24.704,31.06133 a 272.66133,272.66133 0 0 0 147.86133,148.16001 l 31.25333,-24.85334 a 66.133333,66.133333 0 0 1 91.328,-0.128 c 0,0 51.328,39.50934 51.98934,40.17068 z m -29.35467,31.01866 c 0,0 -51.05067,-39.27466 -51.712,-39.936 a 23.466667,23.466667 0 0 0 -33.04533,0 c -0.576,0.59734 -43.60534,34.88 -43.60534,34.88 a 21.333333,21.333333 0 0 1 -20.88533,3.24267 320.192,320.192 0 0 1 -188.18133,-187.90401 21.333333,21.333333 0 0 1 3.09333,-21.33333 c 0,0 34.28267,-43.05067 34.85867,-43.60534 a 23.466667,23.466667 0 0 0 0,-33.04532 c -0.66134,-0.64 -39.936,-51.733343 -39.936,-51.733343 a 23.466667,23.466667 0 0 0 -32.213341,0.832 l -24.53333,21.33334 C -51.515661,217.73496 316.93234,565.74564 443.75901,445.89497 l 19.43467,-22.4 a 23.914667,23.914667 0 0 0 1.81333,-33.216 z"
       id="path1"
       style="fill:#f2f2f2;stroke-width:21.3333" /></g></svg>
